<svg width="77" height="159" viewBox="0 0 77 159" fill="none" xmlns="http://www.w3.org/2000/svg">
<path d="M69.0538 110.071C66.4613 123.293 60.7786 151.5 54.5566 153.367C46.7791 154.922 20.1774 158.419 18.0024 151.034C14.8914 139.367 9.44712 121.479 7.11388 111.368C4.9516 110.924 4.13893 109.109 4.00288 108.257C3.39787 105.232 1.85157 98.9128 4.48958 95.8887C5.24275 95.0254 6.33701 94.4306 7.89163 94.2579C14.8914 93.4801 33.557 89.5914 67.0003 94.2579C68.9284 94.6435 70.6653 95.0291 71.9266 95.8887C73.2092 96.7629 74 98.1271 74 100.48C73.2223 106.702 74 108.257 72.4445 109.035C71.4743 109.367 70.3393 109.717 69.0538 110.071Z" fill="white"/>
<path d="M69.0538 110.071C66.4613 123.293 60.7786 151.5 54.5566 153.367C46.7791 154.922 20.1774 158.419 18.0024 151.034C14.8914 139.367 9.44712 121.479 7.11388 111.368M7.11388 111.368C35.7353 117.59 62.5932 112.405 72.4445 109.035C74 108.257 73.2223 106.702 74 100.48C74 98.1271 73.2092 96.7629 71.9266 95.8887M7.11388 111.368C4.9516 110.924 4.13893 109.109 4.00288 108.257C3.39787 105.232 1.85157 98.9128 4.48958 95.8887M71.9266 95.8887C70.6653 95.0291 68.9284 94.6435 67.0003 94.2579C33.557 89.5914 14.8914 93.4801 7.89163 94.2579C6.33701 94.4306 5.24275 95.0254 4.48958 95.8887M71.9266 95.8887C70.1345 97.9125 60.6844 101.664 37.221 100.48C20.8882 99.7775 8.31241 100.555 4.48958 95.8887" stroke="black" stroke-width="5.46154" stroke-linejoin="round"/>
<path d="M17 5.0483C13 3.0483 4.5 -0.451693 4.5 0.0483141C4.5 4.04831 4 4.04831 4 8.5483C4.5 21.0483 9 26.0483 11 28.0483C14.5 32.0483 16 33.0483 17.5 35.0483C18.3485 36.1797 19.5 37.0483 24.5 42.0483C30.5 47.5483 31 49.0483 32 52.0483C34 60.0483 34.0001 64.5483 34.0001 69.0483C34.0001 73.5483 34.5 95.5 34.5 98C34.5 98.5 36 98 36.5 98C37.5 89 35 65.0483 34.5 60.5483C34.5 50.0483 37.4098 50.2175 42 48.5483C47.5 46.5483 55 42.0483 61 37.5483C70.5167 30.4108 74 19.0483 74 18.0483C72 18.0483 68.5 16.5483 64 16.5483C41.5 16.0483 35.5 42.0483 34 53.5483C33.5001 52.5485 33.5001 45.5506 33.5001 39.0516V39.0483C34.5001 14.0483 20 7.0483 17 5.0483Z" fill="#205950"/>
</svg>
